<?xml version="1.0" encoding="utf-8"?>
<!-- Generator: Adobe Illustrator 18.1.0, SVG Export Plug-In . SVG Version: 6.00 Build 0)  -->
<svg version="1.1" id="Layer_1" xmlns="http://www.w3.org/2000/svg" xmlns:xlink="http://www.w3.org/1999/xlink" x="0px" y="0px"
	 viewBox="0 0 300 300" style="enable-background:new 0 0 300 300;" xml:space="preserve">
<style type="text/css">
	.st0{fill:#BFBDB9;}
	.st1{fill:#D8D7D3;}
	.st2{fill:#E7E6E4;}
	.st3{fill:#6E634E;}
	.st4{fill:#CAC6BA;}
	.st5{fill:#B5B4B1;}
	.st6{fill:#C6C5C1;}
	.st7{fill:#DDD9CE;}
	.st8{fill:#FEE8CA;}
	.st9{fill:#634218;}
	.st10{fill:#EFEBDC;}
	.st11{fill:#7B2D17;}
	.st12{fill:#EED315;}
	.st13{fill:#E25D25;}
	.st14{fill:#F0D6BB;}
	.st15{fill:#672711;}
	.st16{fill:#6F7B33;}
	.st17{fill:#677733;}
	.st18{fill:#F4D5B0;}
	.st19{fill:#C44027;}
	.st20{fill:#777A32;}
	.st21{fill:#A45068;}
	.st22{fill:#A9A235;}
	.st23{fill:#B4556E;}
	.st24{fill:#FCF9F0;}
	.st25{fill:#F3C517;}
	.st26{fill:#DFB692;}
	.st27{fill:#53111F;}
	.st28{fill:#DECAA2;}
	.st29{fill:#445526;}
</style>
<g>
	<path class="st0" d="M152.4,231.1c0,0,8.6,3.2,12.4,0c3.8-3.2,12.8-3.2,16.2-3.7c3.3-0.5,27.1-10.2,27.1-10.2l-1.9-11.1l-2.4-3.7
		c0,0,56.6-22.6,57.1-24c0.5-1.4,15.7-14.3,16.6-20.3c1-6,7.6-14.8,3.3-24.5s-6.7-22.8-5.7-25.3c1-2.5-1-17.4-13.8-25.9
		c-12.8-8.5-27.6-14.9-44-14.5s-85.9,14.5-85.9,14.5L105.3,68c0,0-5.7,14.6-8.6,14.5s-8.6-3.8-8.6-3.8l-20,8.8L152.4,231.1z"/>
	<path class="st1" d="M132.9,83.4c0,0,65.6-13.5,68-14.5c2.4-0.9,37.1-2.3,41.9,3.2s24.3,11.7,27.1,22.5c2.9,10.8,4.8,17.3,4.8,17.3
		s-34.2,9.8-35.7,7.6c-1.4-2.2-27.6,10.3-27.6,10.3l-9.5,1.6c0,0-8.1-17.9-18.6-22.2C172.8,104.9,132.9,83.4,132.9,83.4z"/>
	<path class="st2" d="M175.2,106c0,1,30.4,40.7,30.9,37.9s37.6-2.9,37.6-2.9s20.5-19.6,21.4-18.3c1,1.2,11.9-4.7,11.9-4.7
		s-5.2-21.3-8.6-23.6s-12.4-5.5-28.1,0c-15.7,5.5-18.6-5-18.6-5l-11.4,11.2l-11.9-4L189,106H175.2z"/>
	<path class="st3" d="M94.3,86.1l9.5-14.5c0,0,12.8,10.2,17.6,12c4.8,1.8,9.5,2.5,9.5,2.5l13,3.1c0,0,7,9.6,17.9,18
		s14.7-4.7,14.7-4.7l4.8,10.2l7,8c0,0,2.9,10.5,3.9,17.9c1,7.3,0.5,8,0.5,8s-2.4,32.7,0.5,34.1c2.9,1.4-4.3,12.9-1.9,18
		c2.4,5.1-4.8,13.6-4.8,13.6s-20,9.5-21.4,14.4c-1.4,4.9-2.9-5.3-2.9-5.3s4.8-2.3,13.3-13.9c8.6-11.6,14.3-26.3,13.3-31
		c-1-4.6,1.4-23.3-4.3-29.9c-5.7-6.6,7.1-18.3-10.9-27.2c-18.1-8.9-19-15.1-24.7-16.9s-19.5-12.8-25.2-13.3
		c-5.7-0.5-16.6-0.2-17.6-3.1C105.3,83.2,94.3,86.1,94.3,86.1z"/>
	<path class="st3" d="M203.7,202.5c0-1.8,27.1-12.1,27.1-12.1s29.5-14.7,29.5-16.1s-0.5,5.1,2.9,5.1s-33.8,15.7-33.8,15.7
		s-21.9,10.6-21.9,10.2S203.7,202.5,203.7,202.5z"/>
	<path class="st4" d="M163.3,232c0,0,10.5-9.8,17.6-8.1c7.1,1.6,29-6.2,29-6.2l-4.8-10.6l-8.1-9.7c0,0,9-18.9,8.6-24.5
		c-0.5-5.5,0.5-29,0.5-29s-12.8-18.1-12.8-20.2s-10-14.4-10-14.4l-8.1-12.9c0,0-21.9-2-23.3-8c-1.4-6-19-6.2-20.5-5
		c-1.4,1.2-14.7-5.2-14.7-5.2l-10.9-9.2c0,0-6.2,6-4.8,6c1.4,0,11.9,8.5,11.9,8.5s26.2,0.3,29,3.1c2.9,2.8,27.6,18,27.6,18
		s20,23.9,19.5,27.2s7.6,30.6,5.7,32.5c-1.9,1.8-6.2,36-6.2,36L163.3,232z"/>
	<path class="st5" d="M207.5,137.7c1.4,1,11.4-6.8,15.7-5.9c4.3,0.9,10.9,8.3,10.9,8.3s-1.4-13.7,4.8-14.5
		c6.2-0.8,26.6-8.7,28.5-5.9c1.9,2.8,7.6,18.5,9,24.8s-17.1-0.7-30.4,8.5s-30.9,17-30.9,17l-11.4,1.5L207.5,137.7z"/>
	<path class="st6" d="M199,134.5c0,0,14.3-4.8,15.7-9.8c1.4-5,5.7,6.4,20-1.1c14.3-7.5,40-11.6,40-11.6l2.4,13.9
		c0,0-27.1,17.9-29.5,14.7s-17.8-1.7-29.5,3.4C206.3,148.9,199,134.5,199,134.5z"/>
	<path class="st7" d="M26.8,217.4l-17.1,4c0,0,24.3,19.7,37.1,21.2c12.8,1.5,22.4,12.8,34.2,7.4s29.5-19.6,43.8-15.5
		s34.2-7.5,35.7-9.1c1.4-1.6-44.2,0-44.2,0L26.8,217.4z"/>
	<path class="st8" d="M105.7,99.1c0-1.6,26.2,9.8,29.5,12.9c3.3,3.1,17.6,15.5,22.8,18.3s10.9,20.8,10.9,20.8s4.8,13.4,3.8,19.9
		s-9.5,27.7-9.5,27.7l-12.8,18.9c0,0-19.5,10.2-19,12.5c0.5,2.3,10.5-3.3,13.8-3.5c3.3-0.2,10,2,13.8-3c3.8-5,18.6-13.8,21.4-20.3
		c2.9-6.5,6.7-17.1,6.2-22.6c-0.5-5.5,2.4-24.9,2.4-24.9s3.3-12.5,0-14.6c-3.3-2.1-6.7-8.6-6.7-8.6l2.9-4.1c0,0-1.4-2.5-10-9.1
		c-8.6-6.6-26.8-16.7-32.7-20.4s-17.8-10.6-18.7-7.9c-1,2.8-14.7-1.1-14.3-5c0.5-3.8-19.5,6.2-20.9,0c-1.4-6.2-20.5,7.2-20.5,7.2
		s-20,19-23.3,19.5c-3.3,0.5-20.5,18-20.5,19.9S18.2,171,18.2,171s0.5,3.7,0,5.5c-0.5,1.8-10.9,15.2-4.3,20.8c6.7,5.5,9,12.5,9,12.5
		s2.9,9.7,6.7,10.2c3.8,0.5-1.4,10.6,24.3,12.5C79.6,234.3,105.7,99.1,105.7,99.1z"/>
	<path class="st9" d="M141.4,110c0,0,34.7,21.5,39.5,23s4.8-4.2,4.8-4.2L138.1,110H141.4z"/>
	<path class="st10" d="M23.4,188.6c0.5,2.3,9.5,28.2,13.8,27.7s-6.2,19,4.3,19.7s44.7,1.6,49.9-2.1s38.5-1.4,42.8-6.5
		c4.3-5.1,11.4-4.7,19-14.8c7.6-10.1,15.2-6.6,18.1-31.3c2.9-24.6,4.8-38.6-12.8-54.2s-23.8-22.8-37.1-27.8S80.5,91.9,62,104
		s-28.1,48.6-28.1,48.6L23.4,188.6z"/>
	<path class="st11" d="M62.3,106.8c0,0,16.2-22.7,38.2-11.4s26,37.9,41.1,30c15-7.9,31.2,57.8,31.2,57.8s-28.9,39.6-41.1,13.8
		s-17.4-62.5-27.8-62.6c-10.4-0.1-39.3,4.7-41.6-7C60,115.8,62.3,106.8,62.3,106.8z"/>
	<path class="st12" d="M150.9,147.5c0,0-2.4,21.3,5.2,19.4c7.6-1.8,11.9-7.9,11.9-7.9s-1-16.4-6.2-16.5c-5.2-0.1-4.8-5.2-9-5.4
		s-10.5-5.3-12.4-3.9c-1.9,1.4-10.9,2.6-6.7,7.8c4.3,5.2,10.3,4.7,12,4.7C147.6,145.6,150.9,147.5,150.9,147.5z"/>
	<path class="st12" d="M75.8,112c0,0-8.6,6.9-12.8,5.6c-4.3-1.3-6.7-1.8-4.8-6c1.9-4.2,9-13.1,14.3-10.3c5.2,2.8,6.7,2.2,10.5,2.7
		c3.8,0.5,1-6.5,5.2-8.1c4.3-1.6,19.5,1,21.9,3.4s10,0.4,14.7,0c4.8-0.4,7.6,12.2,7.6,12.2s-10,6.6-11.4,5.1
		c-1.4-1.5-9.5-5.1-9.5-5.1s1.9,5.3,2.4,5.1c0.5-0.1-6.7,5.4-6.7,5.4s-5.7,0-7.6-5.2c-1.9-5.2-11.9,0.1-11.9-4.9
		C87.7,106,75.8,112,75.8,112z"/>
	<path class="st13" d="M71.5,119.3c0,0,3.3-13.3,8.6-10.6c5.2,2.7,11.4,3.1,15.2,1.8c3.8-1.4,8.6,5.7,12.4,5.9
		c3.8,0.1,7.6-2.5,7.6-2.5s5.7,5.9,8.1,5.5c2.4-0.5-8.6-8.9-5.2-13.2c3.3-4.3,4.5-2.1,5.6-4.8s1.1-2.7,1.1-2.7s12.4,4.1,11.4,8.3
		c-1,4.2-10.9,4.2-12.4,7.1c-1.4,2.9-6.2,7-7.6,10.4c-1.4,3.4-5.7,6.7-8.1,11c-2.4,4.4-9.5,4.9-8.6,0c1-4.9-1-7.7-2.4-10.9
		c-1.4-3.2-17.1-3.2-18.1-5.7C78.1,116,71.5,119.3,71.5,119.3z"/>
	<path class="st14" d="M104,145.2v4.6l18.9,12.2h4.8c-0.1,0,3.9,25.7,4.5,27.3c0.4,1,21.6-1.1,21.6-1.1l-7.1-37.7l-16.2,2l-0.5-2.7
		l-16.6-6.2l-2.5-7.6L104,145.2z"/>
	<path class="st15" d="M112.4,139.3c0,0,6.7-10.9,8.6-10.9c1.9,0,12,10.9,12,10.9v5.3c0,0,14.7,3.7,17.1,5.5c2.4,1.8-1.7,9.3,0.2,12
		c1.9,2.8,3.9,8.8,8.2,6.9c4.3-1.8,0.1,8.7,0.1,8.7l-16.6,10.9l-5.5-23.8l-6.4-11l-3.3,7.4c0,0-1.9-7-6.7-11.2
		C115.3,146.1,112.4,139.3,112.4,139.3z"/>
	<path class="st14" d="M71.5,139.1l10.9,9.9h14.7c0,0,7.6-14.7,8.6-16.4c1-1.7-14.7-7.9-14.7-7.9l-17.1-2.5L71.5,139.1z"/>
	<path class="st12" d="M82,132.3c0,0.8-7.6,6.6-9.1,0c-1.4-6.6-2.8-13,0-13.3s9-0.6,9-0.6V132.3z"/>
	<path class="st16" d="M139.5,189.2c-0.4-1.4,0,9.1,0,9.1s18.6-0.1,25.2-9.3c6.7-9.2,6.2-22.1,6.2-22.1l-3.8-12.5l-10,23.9
		C157.1,178.3,140.9,194,139.5,189.2z"/>
	<path class="st16" d="M117.6,129l3.8-8.8l10.9-3.7l3.8,6.2c0,0-7.1,8.6-10.9,6.2C121.4,126.7,117.6,129,117.6,129z"/>
	<path class="st16" d="M74.1,107.6l1.8-11l5.2-4.6l1.8,7.8c0,0-3.4,10.7-5.2,7.8C75.9,104.7,74.1,107.6,74.1,107.6z"/>
	<path class="st17" d="M43.4,125.4l-8.6,26.8c0,0,2.9,19.6,10.9,21.5c8.1,1.9,8.1,1.9,8.1,1.9s-5.7-12-6.2-21.3
		C47.2,145.2,43.4,125.4,43.4,125.4z"/>
	<path class="st18" d="M44.8,126.7c0,0-6.1,5.1,2.3,16.9c8.4,11.8,14.3,18.6,18.6,17.6s18.2-5.4,11.1-13.2
		c-7.2-7.8-10.3-16-17.7-18.3C51.6,127.2,44.8,126.7,44.8,126.7z"/>
	<path class="st19" d="M70,134.6c0,0-15.4,8.7-18.8,4.1s-10.1-8.6-3-13.3c7.1-4.7,12-7.7,14.9-6.9c2.9,0.8,6.8,14.2,6.8,14.2
		S70,136.5,70,134.6z"/>
	<path class="st20" d="M64.8,159.4c1.4-3.6,8.6-10.9,13.8-11.4s24.3,14.2,31.9,18.9c7.6,4.6-14.3,8.1-14.3,8.1s-5.7-8.7-15.7-10.7
		S64.8,159.4,64.8,159.4z"/>
	<path class="st21" d="M86.2,140.1l7.6,12.9l-5.7,2.4c0,0-12.8-6.5-11.9-7.7C77.2,146.5,86.2,140.1,86.2,140.1z"/>
	<path class="st22" d="M78.1,181.7l-12.8,24.8c0,0,4.8,11.7,9.5,8.5S81,195,89.1,196.2c8.1,1.2,25.2,1.1,31.4-8.6
		s-7.6-12.9-7.6-12.9L78.1,181.7z"/>
	<polygon class="st23" points="105,136.4 97,147.8 97,181.7 101,186.2 105,158.5 	"/>
	<path class="st23" d="M115.7,154.4c0,0,12.8,16.4,18.1,12.8c5.2-3.6-6.2,15.5-6.2,15.5s-18.6-3-18.1-8.1
		C110,169.6,115.7,154.4,115.7,154.4z"/>
	<path class="st24" d="M79.1,197.8c0.5,0.9,10.5,19.2,23.8,5.7s13.8-22.3,24.3-16.3c10.5,6,19,17.1,19.5,21.3
		c0.5,4.2-13.8,13.4-20.9,12.9c-7.1-0.5-19-2.4-37.1,0S62,227.8,61,225.3S79.1,197.8,79.1,197.8z"/>
	<path class="st25" d="M56.7,197.3c0-1.3,17.1-0.6,18.6,4.8c1.4,5.4,0,6.8,0,6.8s-6.2,8.8-12.8,4.9c-6.7-4-9-10.1-8.6-11.7
		C54.4,200.6,56.7,197.3,56.7,197.3z"/>
	<path class="st26" d="M44,171.2c-1.9-1.7-11.1-1.1-9.8,3.9c1.3,4.9,13.6,19.2,20.9,21.4s13.7-0.6,14.6-5.4S44,171.2,44,171.2z"/>
	<path class="st25" d="M101.5,150.2c0-1.3,17.1-0.6,18.6,4.8c1.4,5.4,0,6.8,0,6.8s-6.2,8.8-12.8,4.9c-6.7-4-9-10.1-8.6-11.7
		C99.1,153.5,101.5,150.2,101.5,150.2z"/>
	<path class="st27" d="M49,175.7c0,0,17.2,10.6,27.7,7.4c10.5-3.2,16.7-8.3,17.2-7.4c0.5,0.9-11.5-9-11-9.1c0.5-0.1-33.8,6-33.8,6
		V175.7z"/>
	<path class="st28" d="M135.9,114.7c2.2,2.3,34.6,31.9,32.7,48.5s9,35.7-4.3,48.6c-13.3,12.9-19.5,16.5-19.5,16.5l30-19.7
		c0,0,9-37.4,5.2-48.1s-19-36.2-25.7-39.4C147.6,117.9,135.9,114.7,135.9,114.7z"/>
	<path class="st29" d="M75.8,195c0,0,7.1,1.9,4.3,3s2.8,3.4,0.7,4.6c-2.1,1.2,0.5,5.4-2.2,4c-2.7-1.4-8,0.1-7.5,0.3
		C71.5,207.1,75.8,195,75.8,195z"/>
	<path class="st29" d="M73.3,153.7c0,0-6.9-2.7-3.9-3.5c3-0.8-2.3-3.7-0.1-4.6s0.2-5.4,2.7-3.7c2.5,1.7,7.9,0.8,7.5,0.6
		C79,142.2,73.3,153.7,73.3,153.7z"/>
	<path class="st29" d="M56.7,159.9c0,0,7.1,1.9,4.3,3s2.8,3.4,0.7,4.6s0.5,5.4-2.2,4c-2.7-1.4-8,0.1-7.5,0.3
		C52.5,172,56.7,159.9,56.7,159.9z"/>
	<path class="st29" d="M145,196.8c0,0,3.7,0.9,2.2,1.5c-1.5,0.6,1.4,1.7,0.3,2.3c-1.1,0.6,0.2,2.7-1.1,2s-4.1,0-3.8,0.1
		C142.8,202.9,145,196.8,145,196.8z"/>
	<path class="st29" d="M112.1,192.8c0,0,1.4-1.1,2.5-1.1c1.1,0,2.8-1,3.9-1c1.1-0.1,4.6-1.2,3.4-0.6c-1.1,0.6,0.3,0.7,0.4,0.7
		S112.1,192.8,112.1,192.8z"/>
	<path class="st25" d="M64.3,159.8c0-0.9,8.2-0.4,8.9,3.3s0,4.7,0,4.7s-3,6.1-6.2,3.4c-3.2-2.7-4.3-7-4.1-8
		C63.2,162.1,64.3,159.8,64.3,159.8z"/>
	<path class="st25" d="M127.9,186c0-0.6,10.1-0.3,11,2.3c0.8,2.6,0,3.3,0,3.3s-3.7,4.3-7.6,2.4c-3.9-1.9-5.3-4.9-5.1-5.6
		C126.5,187.6,127.9,186,127.9,186z"/>
</g>
</svg>
