<?xml version="1.0" encoding="utf-8"?>
<!-- Generator: Adobe Illustrator 18.1.0, SVG Export Plug-In . SVG Version: 6.00 Build 0)  -->
<svg version="1.1" id="Layer_1" xmlns="http://www.w3.org/2000/svg" xmlns:xlink="http://www.w3.org/1999/xlink" x="0px" y="0px"
	 viewBox="0 0 300 300" style="enable-background:new 0 0 300 300;" xml:space="preserve">
<style type="text/css">
	.st0{fill:#B5B4B1;}
	.st1{fill:#DBA75B;}
	.st2{fill:#F5C97C;}
	.st3{fill:#E9BC68;}
	.st4{fill:#B57E3E;}
	.st5{fill:#82524E;}
	.st6{fill:#593129;}
	.st7{fill:#6D3926;}
	.st8{fill:#432D1E;}
	.st9{fill:#C9963F;}
	.st10{fill:#4F221D;}
	.st11{fill:#C3872C;}
	.st12{fill:#4D2C27;}
	.st13{fill:#94693E;}
</style>
<g>
	<path class="st0" d="M152.5,85c-3.1,1,78.9,11.2,83.5,59.9s-11.5,76.8-34.5,83.9c-23,7.1-51.3,26.7-98-1s-39-70.8-39-70.8
		s5.4-51.5,46.7-61.7S152.5,85,152.5,85z"/>
	<path class="st1" d="M141.7,56.1c-3.4,1.1,87.8,13.2,92.5,68.3c4.7,55-13.5,86.6-39.1,94.4c-25.7,7.8-57.4,29.7-109.3-1.9
		S43,136.7,43,136.7s6.4-58.1,52.6-69.3S141.7,56.1,141.7,56.1z"/>
	<path class="st2" d="M70.2,110.6c0,0,1.7,18.7,8.5,11.4c6.8-7.4,12.8-22.2,21.3-20.5c8.5,1.6,22.2-6.2,28.2-7.2s7.7-8.8,18.8-2.8
		c11.1,5.9,20.5-12,29.9-2.2c9.4,9.8-15.4-18.5-33.3-16.7C125.7,74.3,98.4,92,83,91.4C67.7,90.7,70.2,110.6,70.2,110.6z"/>
	<path class="st3" d="M87.3,134.2c0,0-4.3,16.5,0,28.1c4.3,11.5-10.2,12.2-9.4,18.5c0.9,6.2-17.1,18,0,20.3
		c17.1,2.3,21.4,7.9,33.3,14.2c12,6.2,29,10.4,42.7-4.4c13.7-14.8,13.7-6.8,42.7-18.2s33.3-14.3,31.6-25.6
		c-1.7-11.3-2.7-38.4-23.6-46.7s-11.4-20.2-18.3-22c-6.8-1.8-33.6,4.4-36.9-2.8c-3.3-7.2,12.7-19.1,0-18.9
		c-12.7,0.2-23.8,14.6-25.5,18.9S87.3,134.2,87.3,134.2z"/>
	<path class="st4" d="M69.4,99.7c0,0,6.8,12.3,12,14.8c5.1,2.5,4.3,8.4,5.1,16.6c0.9,8.1-6,12.6,0,21.9c6,9.2-8.5,14.8-8.5,19.4
		c0,4.6,0.6,17.2,0.7,20c0.1,2.7-9.3,12.6-9.3,12.6s3.4-15.4,3.4-24.6s4-7.5,5.8-24c1.8-16.4-2.7-14.2,0-28.1
		C81.3,114.6,69.4,99.7,69.4,99.7z"/>
	<path class="st5" d="M107.7,101.3c11,4.8,15.4,13.7,11,18s-11,6.4-16.5,0c-5.5-6.4-5.5-12.3-5.5-12.3L107.7,101.3z"/>
	<path class="st5" d="M155.1,83.5c8.7,3.5,12.6,10.9,9.4,14.7c-3.2,3.8-8.2,5.8-12.8,0.7c-4.6-5.2-4.8-10.1-4.8-10.1L155.1,83.5z"/>
	<path class="st6" d="M141.3,127.7c0,0,13.8-5.6,17.5,4.9s3.7,10.5,3.7,10.5s-14.7,11.3-21.1,1.8
		C134.9,135.5,141.3,127.7,141.3,127.7z"/>
	<path class="st6" d="M184.6,176.5c0,0,1.7-11.4,9.4-8.7c7.7,2.7,9.2,9.1,6.3,14.1C197.4,186.9,189.7,189.1,184.6,176.5z"/>
	<path class="st7" d="M197.3,139.3c0,0,8.9,7.4,14.6-10.2c5.7-17.6-3.1-11-7.3-12.1s-4.3-12.6-14.4-7.7c-10.2,4.9-14.2,6.7-9.2,14.4
		s7.1-1.8,9.2,3.4C192.2,132.3,197.3,139.3,197.3,139.3z"/>
	<path class="st7" d="M50.6,175.9l4.3-8.7c0,0,6,8.4,6.8,12s-1.7,8.8-5.5,5.4C52.3,181.2,50.6,175.9,50.6,175.9z"/>
	<path class="st7" d="M115.9,79.8l8.8,4.4c0,0-9,5.4-12.7,6.1c-3.7,0.7-9.1-2-5.3-5.6C110.5,81.3,115.9,79.8,115.9,79.8z"/>
	<path class="st8" d="M54.9,141.3c0-3.7,0.9-16.9,6.8-16.9s8.5,10.1,6.8,12.9S54.9,141.3,54.9,141.3z"/>
	<path class="st8" d="M171.8,222.6c0.9-1.1-3.4-11,6-12.6c9.4-1.6,15.4-0.3,18.8,1.5C200,213.2,171.8,222.6,171.8,222.6z"/>
	<path class="st9" d="M96.7,170c0,0,1.7-8.4,7.7-10.2c6-1.7,12,4.4,15.4,8.7c3.4,4.3,5.1,17.3-4.3,14.1
		C106.1,179.5,96.7,170,96.7,170z"/>
	<path class="st10" d="M79.6,150.8c8.5-11.5,6.1-17.1,14.7-14.8s8.5,13.2,8.5,13.2s0,13.7-11.6,7.6
		C79.6,150.8,79.6,150.8,79.6,150.8z"/>
	<path class="st11" d="M117.2,190.4c6.8-10,23-11.1,23-11.1s19.6,4.4,16.2,11.8c-3.4,7.4-1.7,9.4-11.1,12.9s-23,5.1-28.2-3.1
		S117.2,190.4,117.2,190.4z"/>
	<path class="st12" d="M128.3,191.4l11.1-4.4c0,0,3.4,3.7,3.4,7.6c0,3.9,0,5.9-7.3,1.4S128.3,191.4,128.3,191.4z"/>
	<path class="st12" d="M224,172c0-3.2,7.2-13.8,7.2-13.8s2.5,7.4,1.4,12.7c-1.1,5.3-8.6,6.3-8.6,6.3V172z"/>
	<path class="st12" d="M192.4,75.5c3.2,0.6,12.6,9.6,12.6,9.6s-8,0.8-13.2-1.3c-5.2-2.1-4.7-9.4-4.7-9.4L192.4,75.5z"/>
	<path class="st13" d="M104.4,170.4c-3.4-4.8-0.9-8.7,4.3-8s7.7,5.4,6.8,8c-0.9,2.6-1.4,4.5-6.2,2.3
		C104.4,170.4,104.4,170.4,104.4,170.4z"/>
</g>
</svg>
