<?xml version="1.0" encoding="utf-8"?>
<!-- Generator: Adobe Illustrator 18.1.0, SVG Export Plug-In . SVG Version: 6.00 Build 0)  -->
<svg version="1.1" id="Layer_1" xmlns="http://www.w3.org/2000/svg" xmlns:xlink="http://www.w3.org/1999/xlink" x="0px" y="0px"
	 viewBox="0 0 300 300" style="enable-background:new 0 0 300 300;" xml:space="preserve">
<style type="text/css">
	.st0{fill:#A9733A;}
	.st1{fill:#FCB130;}
	.st2{fill:#FDF5EB;}
	.st3{fill:#F4D1BA;}
	.st4{fill:#FCF5E6;}
	.st5{fill:#D35D32;}
	.st6{fill:#B34A34;}
</style>
<g>
	<path class="st0" d="M7.4,227.6c0,0-0.2,18.7,16.2,11.5s21.8-17.6,34.6-14.9c10.3,2.1,16.2,2.5,39.7-12.3
		c5.1-3.2,18.5-0.5,25.8-2.4c7.4-1.8,11.8-8.5,16.1-10.3s28-2.4,28-2.4l7.9-5.4c0,0,5.8-7.6,11-3c5.2,4.5,25.6-13.3,25.6-13.3
		s8.2-5,23.7-4.2s32.2-12.8,40.1-15.2s10.7-20.4,10.7-20.4L7.4,227.6z"/>
	<path class="st1" d="M7.5,230.7c0,0,58.7-10.3,56.5-10.3c-2.3,0,58.7-13.9,64.4-16.9c5.6-3,137.8-45.8,137.8-45.8l28.8-14.5
		c0,0-23.7-35.6-29.9-45.8c-6.2-10.3-27.1-29.6-41.2-38S169,28,155.4,26.8c-13.6-1.2-89.8,114.6-88.1,116.4
		C69,145,7.5,230.7,7.5,230.7z"/>
	<path class="st2" d="M28.9,195.7c0,0-12,10.7-12.4,15.7c-0.5,5-14.7,15.3-7.9,16.3c6.8,0.9,18.4-8.7,26.7-13.3s3.4-0.6,9.6,1.4
		c6.3,2.1,0.1,3.3,10.1-4.1c10-7.4,5.1,5.2,22.5-1.5c17-6.5,24.6-3.3,24.9-3.3l40.3-19.8c0,0,15.2-0.9,20.9-0.5s21.5,3.4,33.2-7.4
		c11.6-10.8,28-12.2,28-12.2s29.5,3.7,40.5-9.8c11-13.5,18.2-20.8,18.2-20.8s-9-24.1-14.1-28.4c-5.2-4.3-4.8-13.7-13.9-14.6
		c-9.1-0.9-15.6,9.7-15.6,9.7s-8.1,17.7-13.8,17.8c-5.6,0.1-12.6-2.2-18.4,11.1c-7.6,17.5-47.6,30.4-61.5,35.1s-51.1,11.1-57.3,9.1
		c-6.3-2.1-15.2,1.5-15.2,1.5s-12.7,14.1-20,14.3C46.2,192,28.9,195.7,28.9,195.7z"/>
	<path class="st2" d="M157.7,40.7c0,0,32.2,17.5,36.7,13.9c4.5-3.6,10.7,9,22,5.4c11.3-3.6,23.7,45.8,28.8,44
		c5.1-1.8-13.6,1-20.9,6.5c-7.3,5.5-12.4,13.8-12.4,13.8s-15.8,3.8-14.7-4.1s-8.5-44-8.5-44s-11.9-9.7-22-6.6s-17.5,1.2-20.9-2.4
		C142.5,63.6,157.7,40.7,157.7,40.7z"/>
	<path class="st3" d="M139.9,41.3l8.2-19.3c0,0,5.6-7.8,16.4-3s1.1,0.6,14.7,6c13.6,5.4,14.1,7.8,20.3,13.3s24.9,7.8,32.2,15.7
		s10.2,10.3,10.7,24.1c0.6,13.9-7.3-13.9,13.6,6.6s16.4,18.7,22.6,25.9s2.8-1.2,10.7,7.2s5.1,11.5,5.1,11.5l0.5,10.9
		c0,0-8.4,1.8-19.7-9c-11.3-10.9-37.3-33.2-40.7-41c-3.4-7.8-17.5-18.1-30.5-26.5S186,50.3,168.4,44.9S139.9,41.3,139.9,41.3z"/>
	<path class="st4" d="M162.2,141.4c0,0,9-2.4,18.6-4.2c9.6-1.8,22-6.6,29.4,4.2c7.3,10.9,10.2,18.2,10.2,18.2s-9-12.3-16.4-12.6
		c-7.3-0.3-31.6-2.4-31.6-2.4s-9.6,12.7-14.1,14.9c-4.5,2.3-13-12.6-13-12.6L162.2,141.4z"/>
	<path class="st2" d="M100.7,108.5c0,0,8.5,1.9,8.5-4.3c0-6.2-4.2-9.9-4.2-9.9s-12.1-2.3-4.2-6.6c7.9-4.2,21.5-7.2,28.2-3
		c6.8,4.2,11.3,9.6,11.3,9.6s-7.9,2.3-11.9,0s-9.2,6.7-9.2,6.7l8.1,10c0,0,0.1,9.9-8.1,9C110.8,119.1,100.7,108.5,100.7,108.5z"/>
	<path class="st5" d="M88.8,122.6c0,0,5.6,29.1,36.7,25.5s33.3-25.5,33.3-25.5S162.2,99.3,130,95C97.8,90.7,88.8,122.6,88.8,122.6z"
		/>
	<path class="st6" d="M132.6,46.7c0,0,21.2-24.1,23.4-19.3c2.3,4.8,13-3.3,16.9,7.7c4,11,2.8,0.1,15.3,6.2c12.4,6,8.5,8.3,9,9.9
		c0.6,1.6,14.7,4.6,23.2,9.4c8.5,4.8,13,7.8,15.3,13.9c2.3,6-5.6,7.9,0,13.3c5.6,5.4,17.5,0,16.9,15.1
		c-0.6,15.1,18.1,12.1,20.3,19.3c2.3,7.2,10.7-3.7,12.4,6.3c1.7,10-10.7,11.2-10.7,11.2s-18.6-7.9-22-11.2
		c-3.4-3.3-6.8,0.3-10.7-5.1c-4-5.4,0-16.9,0-16.9s6.2-0.6-11.9-18.1s-19.2-16.9-24.3-18.1s6.8,10-0.6,11.3
		c-7.3,1.3-20.9-7.1-14.1-13.1c6.8-6-20.9-17.3-20.9-17.3s-6.8,1-14.7-8.1S132.6,46.7,132.6,46.7z"/>
	<path class="st5" d="M188,85.6c0,0,32,7.9,29.4,28s-19,21.8-19,21.8s-24.2,0-31.2-11c-6.9-11-2.6-24-2.6-24S173.7,85.6,188,85.6z"
		/>
	<path class="st2" d="M149.2,164c1.1-2.7,10.7-2.5,5.1-8c-5.6-5.5-22-5.1-22-5.1s-14.1,5.3-18.6,0c-4.5-5.3-20.9-2.9-20.9-2.9
		s-4.5,4.4,4,8s18.1-3.5,20.3,0c2.3,3.5,21.5,5.3,21.5,5.3L149.2,164z"/>
	<path class="st4" d="M69,146c0,0-13,15.8-11.9,13.4c1.1-2.4,24.3,3.9,23.7,11.6s22,0,22,0l11.9-0.7c0,0-14.7-8.5-20.3-10
		s-18.1-8.2-18.1-8.2l-1.7-6.1H69z"/>
	<path class="st5" d="M22.7,200.5c0,0,24.3,4.2,38.4,0s18.6-6.3,27.1-20S85.4,160,85.4,160s-5.6-10.7-13-6.5S22.7,200.5,22.7,200.5z
		"/>
	<path class="st5" d="M112.4,206.2c0,0-0.6-0.9-1.3-2.4c-1.9-3.7-4.8-10.8-2-14.7c3.9-5.4,3.3-16.8,23.3-23.4s36.1,5.6,36.1,5.6
		s6.5,13.9,3.3,16.7C168.4,190.8,112.4,206.2,112.4,206.2z"/>
	<path class="st5" d="M108.6,85.3c0,0,16.9,1.1,18.1,5.3c1.1,4.2,21.7-8.6,21.7-8.6h7.6c0,0,9-8.3,9-17.9s-3.4-17.2-13.6-16.9
		s-16.9-0.1-16.9-0.1L108.6,85.3z"/>
	<path class="st5" d="M198.7,175.2c0,0-12-7.6-7.1-18.3c4.9-10.7,8.7-18.3,25.1-19.8s27.6,3.4,32.1,5.6c4.5,2.2,6.7,6,8.3,6.1
		C258.8,148.9,198.7,175.2,198.7,175.2z"/>
</g>
</svg>
