<?xml version="1.0" encoding="utf-8"?>
<!-- Generator: Adobe Illustrator 18.1.0, SVG Export Plug-In . SVG Version: 6.00 Build 0)  -->
<svg version="1.1" id="Layer_1" xmlns="http://www.w3.org/2000/svg" xmlns:xlink="http://www.w3.org/1999/xlink" x="0px" y="0px"
	 viewBox="0 0 300 300" style="enable-background:new 0 0 300 300;" xml:space="preserve">
<style type="text/css">
	.st0{fill:#B1302D;}
	.st1{fill:#676868;}
	.st2{fill:#9DA1A2;}
	.st3{fill:#AFB2B6;}
	.st4{fill:#525355;}
	.st5{fill:#E7E7E9;}
	.st6{fill:#B7BEB7;}
	.st7{fill:#AC1E23;}
	.st8{fill:#D97C7F;}
	.st9{fill:#9D1C20;}
	.st10{fill:#EFEEEE;}
	.st11{fill:#808487;}
	.st12{fill:#E3D9DA;}
</style>
<g>
	<g>
		<path class="st0" d="M100.9,61c0,0-16.3,19.9-13.2,21.7c3,1.8-5.6,144.5-0.4,145s11.8,23.3,67.2,19.2s59-12.7,60.8-15.9
			c1.8-3.3,0-148.2,0-148.2s-12.6-17.3-11.4-21.3C205,57.5,169.5,82.9,100.9,61z"/>
		<g>
			<path class="st1" d="M98.5,59.7c0,0,12.6,9.8,44,9.8s48.2-2.2,57.2-7.4c9-5.2,2.4-8.4-13.8-11.2c-16.3-2.8-57.8-1.4-66.2,0
				C111.1,52.3,91.8,52.5,98.5,59.7z"/>
			<path class="st2" d="M108.7,61.3c0,0,18.7-8.9,40.3-7.4s46.4,2.9,48.8,7.4C200.2,65.8,117.7,67.2,108.7,61.3z"/>
			<path class="st3" d="M112.3,54.9c0,0-3,7.6,19.9,8.2s24.1-4.7,24.7-6.2S125,52.9,112.3,54.9z"/>
			<path class="st4" d="M117.1,58.6c1.7,0.7,3.6,4.6,13.6,0S113.9,57.2,117.1,58.6z"/>
			<path class="st5" d="M134,59.7c1.7,0.7,3.6,4.6,13.6,0C157.7,55.1,130.7,58.3,134,59.7z"/>
			<path class="st6" d="M99.7,61.2c0,0,31,17.9,100,1.6C212.8,59.8,140.3,69.2,99.7,61.2z"/>
		</g>
		<path class="st7" d="M176.1,94.6L214,83v148.4c0,0-25.9,19.8-34.9,15.6C170.1,242.8,176.1,94.6,176.1,94.6z"/>
		<path class="st8" d="M153.9,90.4c0,0,21.7,0.6,25.3,0c3.6-0.6,0,151.1,0,151.1s-13.2,7.6-20.5,6S153.9,90.4,153.9,90.4z"/>
		<path class="st9" d="M100.9,65.1c0,0-13.8,17.3-12,17.3s32.5,17.2,60.2,14.1s68.7-6.5,65.9-13.9c-3-7.8-16.5-19.2-11.7-20.3
			C208,61.1,167.1,78.5,100.9,65.1z"/>
		<path class="st10" d="M187.1,66.3l6.7-2.4c0,0,6.7,27,8.6,26.3c1.8-0.6,4.6,63.9,5.3,69.9c1.9,15.6-3.5,75.6-3.5,78.2
			c0,2.6-24.5,9.3-27.5,7.8s15.7-22.5,21.4-37.2c5.8-14.9,1.2-15.5,5.5-27.9c3.8-10.8-7.6-39.3-6.8-54.2c0.8-13.8,1.5-23.6-1.2-32.5
			C192.8,84.6,187.1,66.3,187.1,66.3z"/>
		<path class="st11" d="M90.6,229.8c0,0,24.7,23.4,71.7,17.7s48.2-13.5,50.6-14.6c2.4-1-10.8,14.1-18.1,16.7s-75.9,4.1-86.1-2.1
			S90.6,229.8,90.6,229.8z"/>
		<path class="st12" d="M102.7,60.8L90.7,80.4l3,85.9c0,0-0.6,40.1-3,41.6c-2.4,1.6-1.2,21.3,0,21.3c1.2,0,6.4,3.6,5.3,4.2
			s-1.3-8.9,0-28.6c1.3-19.8,0-46.3,0-46.3V89.7c0,0-6.1-3.9,0-12.1s9.7-14,9.7-14L102.7,60.8z"/>
		<g id="KhiUdw.tif">
			
				<image style="overflow:visible;" width="470" height="155" id="Layer_0_1_" xlink:href="20BD94448D2F497F.png"  transform="matrix(2.075198e-03 -0.3385 0.4554 2.087859e-03 108.9369 238.6472)">
			</image>
		</g>
	</g>
</g>
</svg>
